/* XPM */
const char *AppIcon_xpm[] = {
/* columns rows colors chars-per-pixel */
"32 32 102 2 ",
"   c #008B8E",
".  c #078C8F",
"X  c #098C8F",
"o  c #0D8C8F",
"O  c #108C8F",
"+  c #0E8D90",
"@  c #108E91",
"#  c #148D90",
"$  c #179092",
"%  c #189093",
"&  c #1B9194",
"*  c #238F92",
"=  c #248F92",
"-  c #249092",
";  c #299093",
":  c #2D9194",
">  c #339395",
",  c #349395",
"<  c #44989B",
"1  c #48989A",
"2  c #489A9C",
"3  c #4C9C9E",
"4  c #509DA0",
"5  c #5AA0A2",
"6  c #5CA0A2",
"7  c #5AA1A4",
"8  c #5DA3A5",
"9  c #69A5A7",
"0  c #64A6A8",
"q  c #6BA8AA",
"w  c #6EA9AB",
"e  c #6FAAAC",
"r  c #70ABAD",
"t  c #73ACAE",
"y  c #76AFB1",
"u  c #7BAEB0",
"i  c #7DAFB1",
"p  c #7CB1B3",
"a  c #83B3B4",
"s  c #8AB6B7",
"d  c #86B9BA",
"f  c #89BABB",
"g  c #8DB9BB",
"h  c #8BBBBC",
"j  c #8DBBBD",
"k  c #90B8BA",
"l  c #90BDBF",
"z  c #94BCBE",
"x  c #95BFC1",
"c  c #9BBFC0",
"v  c #96C0C1",
"b  c #99C1C2",
"n  c #9EC1C2",
"m  c #9FC3C5",
"M  c #9DC5C6",
"N  c #A2C3C5",
"B  c #A1C4C5",
"V  c #A3C7C8",
"C  c #A7C7C8",
"Z  c #A3C9CB",
"A  c #AAC8C9",
"S  c #AECACB",
"D  c #ABCBCC",
"F  c #AECBCC",
"G  c #A9CDCE",
"H  c #AECECF",
"J  c #B0CBCD",
"K  c #B3CECF",
"L  c #B4D2D3",
"P  c #BAD2D3",
"I  c #BDD2D3",
"U  c #B9D3D4",
"Y  c #BCD4D5",
"T  c #BED8D9",
"R  c #C0D5D6",
"E  c #C0D8D9",
"W  c #C5DADA",
"Q  c #C7DDDD",
"!  c #C9DADB",
"~  c #CBDDDD",
"^  c #CCDEDF",
"/  c #CBDFE0",
"(  c #CAE0E1",
")  c #CCE1E1",
"_  c #D1E1E2",
"`  c #D4E3E4",
"'  c #D4E4E4",
"]  c #D9E6E6",
"[  c #DAE7E8",
"{  c #D8E8E9",
"}  c #DDEBEB",
"|  c #E0EBEB",
" . c #E0ECEC",
".. c #E5EEEE",
"X. c #E6F0F0",
"o. c #E8F2F2",
"O. c #EBF3F4",
"+. c #EBF4F4",
"@. c #EEF5F5",
"#. c #F0F7F7",
"$. c #FBFDFD",
"%. c #FEFFFF",
/* pixels */
"                                                                ",
"                                                                ",
"                                                                ",
"                                    N Y .                       ",
"                                  N %.%.Y .                     ",
"                                N %.%.%.%.Y X   ; u             ",
"                                W %.%.%.%.} - ; ' $.k           ",
"                                @ W %.%.} , ; ' %.%.$.k         ",
"                                  @ W } >   Y %.%.%.%.$.6       ",
"                                    # :     1 ..%.%.%.A         ",
"              5 e e e 4 q e e e 3 w e e e 2   1 ..%.A           ",
"            4 ' [ [ ` M [ [ [ _ V ] ] ] _ j     1 b             ",
"          a @.#.#.} T #.#.#.{ j P _ _ _ A  .                    ",
"        s ] ] ] E y A A A A z ~  .%.%.%./ ..    9               ",
"      < v M M b K ^ %.%.%.%.B ~  .%.%.%./ ..  c %.K             ",
"      B %.%.%.@.I ^ %.%.%.%.B ~  .%.%.%./ ~ c %.%.%.J           ",
"      B %.%.%.@.I ^ %.%.%.%.B W Y _ _ _ B v %.%.%.%.%.n         ",
"      B %.%.%.@.I ~ @.@.@.@.p / #.#.#.E Z ' _ %.%.%...1         ",
"      B %.%.%.@.n W ^ ^ ^ D w K K K F n ) ..= _ %...<           ",
"      7 l l l d q L L L H C _ %.%.%.%.N ) ..  * U 1             ",
"      B %.%.%.@.F %.%.%.+.R _ %.%.%.%.N ) E                     ",
"      B %.%.%.@.F %.%.%.+.R _ %.%.%.%.N L Q                     ",
"      B %.%.%.@.F %.%.%.+.R W o.o.o.X.r G ..                    ",
"      N %.%.%.@.S %.%.%.O.g | o.o.o.A U ( ..                    ",
"      8 v v v h 0 v v v f t V V V x W _ ( ..                    ",
"      B %.%.%.@.F %.%.%.+.K %.%.%...! _ ( Y                     ",
"      B %.%.%.@.F %.%.%.+.K %.%.%...! _ F O                     ",
"      B %.%.%.@.F %.%.%.+.K %.%.%...! m o                       ",
"      N $.$.$.O.A $.$.$.o.K $.$.$. .i o                         ",
"      + & & & % + & & & % @ & & & $                             ",
"                                                                ",
"                                                                "
};
