/* XPM */
const char *AppIcon_xpm[] = {
/* columns rows colors chars-per-pixel */
"16 16 97 2 ",
"   c #028390",
".  c #028491",
"X  c #028592",
"o  c #038593",
"O  c #028794",
"+  c #048694",
"@  c #0C8594",
"#  c #0C8696",
"$  c #028A97",
"%  c #098895",
"&  c #038998",
"*  c #028A98",
"=  c #028B98",
"-  c #028B99",
";  c #028B9B",
":  c #028D9C",
">  c #038D9D",
",  c #028E9D",
"<  c #028E9E",
"1  c #028F9F",
"2  c #0B8998",
"3  c #128796",
"4  c #168795",
"5  c #1A8692",
"6  c #1B8692",
"7  c #1A8693",
"8  c #1E8693",
"9  c #1F8794",
"0  c #158896",
"q  c #1A8894",
"w  c #1A8895",
"e  c #168B99",
"r  c #138E9D",
"t  c #13909F",
"y  c #208793",
"u  c #208894",
"i  c #218895",
"p  c #218996",
"a  c #278895",
"s  c #328D99",
"d  c #358C98",
"f  c #358D99",
"g  c #348E9A",
"h  c #0290A0",
"j  c #0691A2",
"k  c #0293A4",
"l  c #0294A5",
"z  c #0395A6",
"x  c #0495A6",
"c  c #0696A7",
"v  c #0C91A1",
"b  c #0297A9",
"n  c #0198A9",
"m  c #0198AA",
"M  c #0298AA",
"N  c #0299AB",
"B  c #039AAD",
"V  c #039BAE",
"C  c #059BAE",
"Z  c #0C98AA",
"A  c #099AAC",
"S  c #029FB2",
"D  c #049DB1",
"F  c #0B9DB0",
"G  c #02A0B3",
"H  c #03A0B4",
"J  c #02A2B6",
"K  c #03A2B6",
"L  c #02A3B7",
"P  c #02A3B8",
"I  c #03A3B8",
"U  c #01A4B9",
"Y  c #02A4B8",
"T  c #03A4B9",
"R  c #01A6BB",
"E  c #02A6BB",
"W  c #0CA4B8",
"Q  c #09A7BC",
"!  c #02A8BD",
"~  c #02AABF",
"^  c #09A8BD",
"/  c #02ABC1",
"(  c #02AFC6",
")  c #01B0C7",
"_  c #02B3CB",
"`  c #01B4CD",
"'  c #01B5CD",
"]  c #02B5CD",
"[  c #01B6CD",
"{  c #01B7CF",
"}  c #01B7D0",
"|  c #01B8D1",
" . c #01B9D1",
".. c #01B9D2",
"X. c #01BAD3",
"o. c #01BBD4",
"O. c None",
/* pixels */
"O.O.O.O.O.O.O.O.O.O.O.O.f g s O.",
"O.O.O.O.O.O.O.7 O.O.O.O.v ~ J d ",
"O.O.O.O.O.O.a H c u O.O.Z X.) p ",
"O.O.O.O.O.O.j  .[ 2 O.O.t W F d ",
"O.4 0 0 O.O.w K D O.O.O.O.O.O.O.",
"O.B / ! @ O.O.8 5 O.O.O.O.O.O.O.",
"O.T o.} # O.O.O.O.O.O.O.O.q y O.",
"O.K | ` 3 O.O.O.O.O.O.9 S ( r O.",
"O.& 1 < o > > + O.O.O.i / X.V O.",
"O.I ..' k |  .n O.O.O.O.x C e O.",
"O.T o.{ l X.X.m O.O.O.O.6 O.O.O.",
"O.z L G ; J J ,   O.O.O.O.O.O.O.",
"O.b E Y : E E h J R A O.O.O.O.O.",
"O.U o.{ l X.X.N ] o.^ O.O.O.O.O.",
"O.P ..' k |  .M _ ..Q O.O.O.O.O.",
"O.O - * . = = X $ - % O.O.O.O.O."
};
