/* XPM */
const char *os_icon_xpm[] = {
"64 64 279 2",
"  	c None",
". 	c #000000",
"+ 	c #747474",
"@ 	c #D7D7D7",
"# 	c #F1F1F1",
"$ 	c #EAEAEA",
"% 	c #B5B5B5",
"& 	c #272727",
"* 	c #8E8E8E",
"= 	c #FBFBFB",
"- 	c #FFFFFF",
"; 	c #E1E1E1",
"> 	c #353535",
", 	c #595959",
"' 	c #F8F8F8",
") 	c #C8C8C8",
"! 	c #030303",
"~ 	c #989898",
"{ 	c #D9D9D9",
"] 	c #F0F0F0",
"^ 	c #F7F7F7",
"/ 	c #E3E3E3",
"( 	c #B9B9B9",
"_ 	c #484848",
": 	c #CACACA",
"< 	c #6A6A6A",
"[ 	c #3F3F3F",
"} 	c #DDDDDD",
"| 	c #F5F5F5",
"1 	c #868686",
"2 	c #313131",
"3 	c #F9F9F9",
"4 	c #BFBFBF",
"5 	c #060606",
"6 	c #FAFAFA",
"7 	c #6D6D6D",
"8 	c #8B8B8B",
"9 	c #E5E5E5",
"0 	c #999999",
"a 	c #ACACAC",
"b 	c #E2E2E2",
"c 	c #DEDDDD",
"d 	c #FDFDFD",
"e 	c #D3D3D3",
"f 	c #FEFEFE",
"g 	c #343434",
"h 	c #3D3A39",
"i 	c #231F1C",
"j 	c #EDEDED",
"k 	c #6D6C6C",
"l 	c #7A7A7A",
"m 	c #B8B8B8",
"n 	c #E7E7E7",
"o 	c #1F1A17",
"p 	c #D4D4D4",
"q 	c #D8D8D8",
"r 	c #201C19",
"s 	c #CECECE",
"t 	c #525252",
"u 	c #A9A9A9",
"v 	c #514F4E",
"w 	c #3F3D3C",
"x 	c #ECECEC",
"y 	c #AFAFAF",
"z 	c #CDCDCD",
"A 	c #E8E8E8",
"B 	c #7C7C7C",
"C 	c #EEEDED",
"D 	c #DFDFDF",
"E 	c #959595",
"F 	c #050505",
"G 	c #F4F4F4",
"H 	c #B3B3B3",
"I 	c #F3F3F3",
"J 	c #B2B2B2",
"K 	c #4A4A4A",
"L 	c #515151",
"M 	c #C9C9C9",
"N 	c #E0E0E0",
"O 	c #888888",
"P 	c #383838",
"Q 	c #EEEEEE",
"R 	c #FFFFFE",
"S 	c #BCB6AD",
"T 	c #624E00",
"U 	c #3D2E00",
"V 	c #181818",
"W 	c #3A3A3A",
"X 	c #666666",
"Y 	c #FFFDFA",
"Z 	c #FADA9D",
"` 	c #F8C529",
" .	c #F8C301",
"..	c #F6C301",
"+.	c #E1B301",
"@.	c #C19901",
"#.	c #795F00",
"$.	c #3D3D3D",
"%.	c #B4B4B4",
"&.	c #D1D1D1",
"*.	c #CAC4BA",
"=.	c #F4C001",
"-.	c #D7AA07",
";.	c #313130",
">.	c #8D8D8C",
",.	c #CBCBCB",
"'.	c #F5D9A7",
").	c #F8C306",
"!.	c #F7EDDF",
"~.	c #D7D7D6",
"{.	c #ADADAB",
"].	c #797978",
"^.	c #020202",
"/.	c #4D4D4C",
"(.	c #ADADAC",
"_.	c #E5E5E4",
":.	c #FCFCFB",
"<.	c #FFFCF8",
"[.	c #F8C847",
"}.	c #FBDB9E",
"|.	c #F7F7F6",
"1.	c #E3E3E2",
"2.	c #D0D0CF",
"3.	c #979796",
"4.	c #272726",
"5.	c #282827",
"6.	c #A4A4A2",
"7.	c #DCDCDA",
"8.	c #F4F4F3",
"9.	c #FCE7C3",
"0.	c #F8C532",
"a.	c #FEF8F0",
"b.	c #EBEBEA",
"c.	c #DEDEDC",
"d.	c #D2D2D0",
"e.	c #848483",
"f.	c #5E5E5D",
"g.	c #CDCDCB",
"h.	c #E0E0DE",
"i.	c #FFFEFC",
"j.	c #F9CC66",
"k.	c #FBE1B2",
"l.	c #EFEFEF",
"m.	c #B7B7B5",
"n.	c #363636",
"o.	c #7E7E7D",
"p.	c #DADAD8",
"q.	c #DFDFDD",
"r.	c #FDEDD3",
"s.	c #F8C84A",
"t.	c #FFFCF7",
"u.	c #EEEEED",
"v.	c #565655",
"w.	c #898988",
"x.	c #DDDDDB",
"y.	c #F9D27E",
"z.	c #FCE8C6",
"A.	c #E9E9E8",
"B.	c #D3D3D2",
"C.	c #585857",
"D.	c #7C7C7B",
"E.	c #FDF3E3",
"F.	c #F9CD66",
"G.	c #E2E2E0",
"H.	c #D2D2D1",
"I.	c #484847",
"J.	c #5B5B5A",
"K.	c #D9D9D7",
"L.	c #E1E1DF",
"M.	c #FEF7ED",
"N.	c #F5F5F4",
"O.	c #C5C5C4",
"P.	c #121212",
"Q.	c #0E0E0E",
"R.	c #C9C9C7",
"S.	c #F2F2F1",
"T.	c #E6E6E5",
"U.	c #A5A5A3",
"V.	c #9B9B99",
"W.	c #E1E1E0",
"X.	c #616160",
"Y.	c #F0F0EF",
"Z.	c #E4E4E2",
"`.	c #BBBBBA",
" +	c #A0A09E",
".+	c #656564",
"++	c #040404",
"@+	c #D4D4D2",
"#+	c #E6E6E4",
"$+	c #B0B0AF",
"%+	c #EFEFEE",
"&+	c #E3E3E1",
"*+	c #D8D8D6",
"=+	c #161616",
"-+	c #AAAAA9",
";+	c #7B7B7A",
">+	c #CACAC8",
",+	c #BDBDBC",
"'+	c #646463",
")+	c #E5E5E3",
"!+	c #6E6E6E",
"~+	c #DBDBD9",
"{+	c #767674",
"]+	c #E9E9E7",
"^+	c #747473",
"/+	c #6F6F6E",
"(+	c #010101",
"_+	c #5E5E5E",
":+	c #F9F9F8",
"<+	c #CCCCCA",
"[+	c #070707",
"}+	c #F6F6F6",
"|+	c #BEBEBC",
"1+	c #C8C8C6",
"2+	c #FCFCFC",
"3+	c #F1F1F0",
"4+	c #C4C4C2",
"5+	c #A7A7A6",
"6+	c #F6F6F5",
"7+	c #EAEAE9",
"8+	c #D0D0CE",
"9+	c #E4E4E3",
"0+	c #999998",
"a+	c #FBFBFA",
"b+	c #D5D5D3",
"c+	c #E2E2E1",
"d+	c #8F8F8D",
"e+	c #C2C2C0",
"f+	c #BE9601",
"g+	c #D0AB49",
"h+	c #F1CB7D",
"i+	c #F3CA71",
"j+	c #F4CB72",
"k+	c #FAD487",
"l+	c #FBDBA0",
"m+	c #FBE3B9",
"n+	c #FDEFD8",
"o+	c #FDF2DF",
"p+	c #FCE6C0",
"q+	c #FBDDA6",
"r+	c #FAD58B",
"s+	c #F8D07C",
"t+	c #F3C970",
"u+	c #F1CB79",
"v+	c #EECE90",
"w+	c #EDD29E",
"x+	c #FAC501",
"y+	c #F9C501",
"z+	c #F8C424",
"A+	c #FAD894",
"B+	c #FDF1DE",
"C+	c #FEF6EA",
"D+	c #F8C743",
"E+	c #F9C401",
"F+	c #F9C601",
"G+	c #F8C401",
"H+	c #FAD68F",
"I+	c #FEF9F3",
"J+	c #FFFDFB",
"K+	c #FBDFAC",
"L+	c #F8C311",
"M+	c #F9CA57",
"N+	c #FAD17E",
"O+	c #F9CE6D",
"P+	c #FADBA0",
"Q+	c #FDEED6",
"R+	c #FEF9F1",
"S+	c #F8C300",
"T+	c #FCE5BF",
"U+	c #FDF2E0",
"V+	c #FCEBCD",
"W+	c #FEF7EC",
"X+	c #EFBD01",
"Y+	c #777166",
"Z+	c #8F8F8F",
"`+	c #8A8A89",
" @	c #DCAE05",
".@	c #B08C00",
"+@	c #826700",
"                                                        . . . . . . . .                                                         ",
"                                                  . . . . . . . . . . . . . .                                                   ",
"                                              . . . . . . . . . . . . . . . . . .                                               ",
"                                          . . . + @ # $ % & . . . . . . . . . . . . .                                           ",
"                                        . . . * = - - - - ; > . . . . . . . . . . . . .                                         ",
"                                      . . . , ' - - - - - - ) . . . ! ~ { ] ^ / ( _ . . .                                       ",
"                                    . . . . : - - - - - - - - < . [ } - - - - - - | 1 . . .                                     ",
"                                  . . . . 2 3 - - - - - - - - 4 5 } - - - - - - - - 6 7 . . .                                   ",
"                                . . . . . 8 - - - - - - - - - 9 0 - - - - - - - - - - { . . . .                                 ",
"                              . . . . . . a - - - - - - - b c d e - - - - - - - - - - f g . . . .                               ",
"                              . . . . . . ( - - - - - - | h i j $ k / - - - - - - - - - l . . . .                               ",
"                            . . . . . . . m - - - - - - n o o p q r s - - - - - - - - - t . . . . .                             ",
"                          . . . . . . . . u - - - - - - 3 v w x y z ' - - - - - - - - A . . . . . . .                           ",
"                          . . . . . . . . B - - - - - - - # C D [ ] - - - - - - - - - E . . . . . . .                           ",
"                        . . . . . . . . . F G - - - - - - - - H . + I - - - - - - - J . . . . . . . . .                         ",
"                        . . . . . . . . . . m - - - - - - - 6 K . . L M ' - - f N O . . . . . . . . . .                         ",
"                        . . . . . . . . . . P Q - - - - - R S T U . . . V 7 l W . . . . . . . . . . . .                         ",
"                      . . . . . . . . . . . . X ] - - Y Z `  . . ...+.@.#.. . . . . . . . . . . . . . . .                       ",
"                      . . . . . . . . . . . . . $.%.&.*.=. . . . . . . .-.. . . . . . . . . . . . . . . .                       ",
"                      . . . . . . . . . . . . . . ;.>.,.'. . . . . . .).!.~.{.].^.. . . . . . . . . . . .                       ",
"                    . . . . . . . . . . . . . /.(._.:.- <.[. . . . . .}.- - |.1.2.3.4.. . . . . . . . . . .                     ",
"                    . . . . . . . . . . . 5.6.7.8.- - - - 9. . . . .0.a.- - - f b.c.d.e.. . . . . . . . . .                     ",
"                    . . . . . . . . . . f.g.h.' - - - - - i.j. . . .k.- - - - - - l.c.c.m.n.. . . . . . . .                     ",
"                    . . . . . . . . . o.p.q.' - - - - - - - r. . .s.t.- - - - - - - u.c.c.g.v.. . . . . . .                     ",
"                  . . . . . . . . . w.x.c.G - - - - - - - - - y. .z.- - - - - - - - - A.c.c.B.C.. . . . . . .                   ",
"                  . . . . . . . . D.7.c.b.- - - - - - - - - - E.F.i.- - - - - - - - - d G.c.c.H.I.. . . . . . .                 ",
"                . . . . . . . . J.K.c.L.d - - - - - - - - - - - M.- - - - - - - - - - - N.c.c.c.O.P.. . . . . . .               ",
"              . . . . . . . . Q.R.c.c.S.- - - - - - - - - - - - - - - - - - - - - - - - - T.c.c.c.U.. . . . . . . .             ",
"            . . . . . . . . . V.c.c.W.f - - - - - - - - - - - - - - - - - - - - - - - - - |.c.c.c.7.X.. . . . . . . .           ",
"          . . . . . . . . . W K.c.c.Y.- - - - - - - - - - - - - - - - - - - - - - - - - - - Z.c.c.c.`.. . . . . . . . .         ",
"      . . . . . . . . . . .  +c.c.c.:.- - - - - - - - - - - - - - - - - - - - - - - - - - - ] c.c.c.q..+. . . . . . . . .       ",
"    . . . . . . . . . . . ++@+c.c.#+- - - - - - - - - - - - - - - - - - - - - - - - - - - - = c.c.c.c.$+. . . . . . . . . . .   ",
"  . . . . . . . . . . . . D.c.c.c.%+- - - - - - - - - - - - - - - - - - - - - - - - - - - - - &+c.c.c.*+=+. . . . . . . . . .   ",
"  . . . . . . . . . . . . -+c.c.c.|.- - - - - - - - - - - - - - - - - - - - - - - - - - - - - b.c.c.c.c.;+. .                   ",
"                  . . . . >+c.c.c.d - - - - - - - - - - - - - - - - - - - - - - - - - - - - - S.c.c.c.c.U.. .                   ",
"                  . . . P.q.c.c.h.- - - - - - - - - - - - - - - - - - - - - - - - - - - - - - |.c.c.c.c.,+. .                   ",
"                    . . '+c.c.c.)+- - - - - - - - - - - - - - - - - - - - - - - - - - - - - - 3 c.c.c.c.g..                     ",
"                    . . !+c.c.c.T.- - - - - - - - - - - - - - - - - - - - - - - - - - - - - - d c.c.c.c.~+.                     ",
"                    . . {+c.c.c.]+- - - - - - - - - - - - - - - - - - - - - - - - - - - - - - f c.c.c.c.h..                     ",
"                    . . ^+c.c.c.]+- - - - - - - - - - - - - - - - - - - - - - - - - - - - - - f c.c.c.c.q..                     ",
"                    . . /+c.c.c.#+- - - - - - - - - - - - - - - - - - - - - - - - - - - - - - d c.c.c.c.p.(+                    ",
"                      . _+c.c.c.)+- - - - - - - - - - - - - - - - - - - - - - - - - - - - - - :+c.c.c.c.<+                      ",
"                      . [+x.c.c.h.- - - - - - - - - - - - - - - - - - - - - - - - - - - - - - }+c.c.c.c.|+                      ",
"                      . . 1+c.c.c.2+- - - - - - - - - - - - - - - - - - - - - - - - - - - - - 3+c.c.c.c.4+                      ",
"                        . 5+c.c.c.6+- - - - - - - - - - - - - - - - - - - - - - - - - - - - - 7+c.c.c.c.                        ",
"                        . ^+c.c.c.u.- - - - - - - - - - - - - - - - - - - - - - - - - - - - - G.c.c.c.q.                        ",
"                          . 8+c.c.9+- - - - - - - - - - - - - - - - - - - - - - - - - - - - 6 c.c.c.c.h.                        ",
"                          . 0+c.c.c.a+- - - - - - - - - - - - - - - - - - - - - - - - - - - %+c.c.c.c.                          ",
"                            2 b+c.c.u.- - - - - - - - - - - - - - - - - - - - - - - - - - - c+c.c.c.h.                          ",
"                            . d+c.c.L.f - - - - - - - - - - - - - - - - - - - - - - - - - | c.c.c.q.                            ",
"                              . e+c.c.] - - - - - - - - - - - - - - - - - - - - - - - - - )+c.c.c.                              ",
"                              f+g+h+i+j+k+l+m+n+<.- - - - - - - - - - - - - - i.o+p+q+r+s+t+u+v+w+                              ",
"                        x+y+ . . . . . . . . . .z+A+B+- - - - - - - - - - C+q+D+ . . . . . . . . . .E+F+                        ",
"                      G+ . . . . . . . . . . . . . . .H+I+- - - - - - J+K+L+ . . . . . . . . . . . . . . .F+                    ",
"                  y+ . . . . . . . . . . . . . . . . . .M+M.- - - - Y N+ . . . . . . . . . . . . . . . . . .E+                  ",
"                F+ . . . . . . . . . . . . . . . . . . . .O+i.- - - P+ . . . . . . . . . . . . . . . . . . . .y+                ",
"                G+ . . . . . . . . . . . . . . . . . . . . .Q+- - R+S+ . . . . . . . . . . . . . . . . . . . . .                ",
"                 . . . . . . . . . . . . . . . . . . . . . .T+- - U+ . . . . . . . . . . . . . . . . . . . . . .                ",
"                G+ . . . . . . . . . . . . . . . . . . . . .V+- - W+ . . . . . . . . . . . . . . . . . . . . . .                ",
"                y+ . . . . . . . . . . . . . . . . . . . .X+Y+1 Z+`+ @ . . . . . . . . . . . . . . . . . . . .E+                ",
"                  E+ . . . . . . . . . . . . . . . . . .G+.@. . . . +@E+ . . . . . . . . . . . . . . . . . .G+                  ",
"                    y+ . . . . . . . . . . . . . . . .G+                y+ . . . . . . . . . . . . . . . .y+                    ",
"                        y+ . . . . . . . . . . . .y+                        y+ . . . . . . . . . . . .E+                        ",
"                              y+y+G+E+ .E+y+y+F+                                  y+y+E+E+E+G+y+y+                              "};
