/* XPM */
const char *os_icon_xpm[] = {
"64 64 257 2",
"  	c None",
". 	c #47704C",
"+ 	c #044469",
"@ 	c #04486E",
"# 	c #044970",
"$ 	c #035079",
"% 	c #062F4B",
"& 	c #062F4C",
"* 	c #06304D",
"= 	c #072A44",
"- 	c #072A44",
"; 	c #07273F",
"> 	c #062339",
", 	c #07253C",
"' 	c #12242F",
") 	c #183043",
"! 	c #1B3549",
"~ 	c #234056",
"{ 	c #2D4557",
"] 	c #2D4B61",
"^ 	c #3C5466",
"/ 	c #4E6679",
"( 	c #536B7E",
"_ 	c #647B8C",
": 	c #697F90",
"< 	c #5B7385",
"[ 	c #435A6C",
"} 	c #335066",
"| 	c #374C5E",
"1 	c #1A3B51",
"2 	c #072840",
"3 	c #072B44",
"4 	c #496072",
"5 	c #5F7789",
"6 	c #778A9A",
"7 	c #899AA8",
"8 	c #99A7B3",
"9 	c #9FADB8",
"0 	c #ACB8C1",
"a 	c #BAC3CB",
"b 	c #C2CAD1",
"c 	c #CBD1D7",
"d 	c #A6B2BC",
"e 	c #93A2AF",
"f 	c #8596A4",
"g 	c #728797",
"h 	c #8E9EAB",
"i 	c #B3BDC6",
"j 	c #253C4D",
"k 	c #7B8F9E",
"l 	c #6D8394",
"m 	c #557083",
"n 	c #8093A1",
"o 	c #152A3C",
"p 	c #405E74",
"q 	c #23465F",
"r 	c #3A5970",
"s 	c #0C334D",
"t 	c #072D48",
"u 	c #476379",
"v 	c #4A6B82",
"w 	c #33556D",
"x 	c #40647D",
"y 	c #605C5E",
"z 	c #365E78",
"A 	c #2B5874",
"B 	c #1C425B",
"C 	c #578AAC",
"D 	c #2B506A",
"E 	c #234B67",
"F 	c #06304B",
"G 	c #7E5A51",
"H 	c #9E604B",
"I 	c #BA5A44",
"J 	c #C06146",
"K 	c #0C3A56",
"L 	c #C46749",
"M 	c #B6533F",
"N 	c #3E433B",
"O 	c #CD7149",
"P 	c #604B36",
"Q 	c #3B7FAF",
"R 	c #B24C38",
"S 	c #225371",
"T 	c #083653",
"U 	c #283832",
"V 	c #1A4865",
"W 	c #C76D4F",
"X 	c #134361",
"Y 	c #0D3E5B",
"Z 	c #CB7455",
"` 	c #CF7B5A",
" .	c #053350",
"..	c #B0462C",
"+.	c #BD583B",
"@.	c #567743",
"#.	c #144868",
"$.	c #789F47",
"%.	c #87AA4B",
"&.	c #7DA350",
"*.	c #719A42",
"=.	c #3D5E3B",
"-.	c #124B6C",
";.	c #CB9449",
">.	c #7FAA31",
",.	c #83A756",
"'.	c #835A27",
").	c #F09A30",
"!.	c #629135",
"~.	c #134E33",
"{.	c #B84F31",
"].	c #D28262",
"^.	c #3A751B",
"/.	c #266C1D",
"(.	c #116120",
"_.	c #8AAC5B",
":.	c #467E27",
"<.	c #F2A037",
"[.	c #D68A6A",
"}.	c #6B963A",
"|.	c #8FAF62",
"1.	c #F3A63F",
"2.	c #DA9372",
"3.	c #5A8B2F",
"4.	c #93B25B",
"5.	c #96B369",
"6.	c #031B30",
"7.	c #50842A",
"8.	c #053857",
"9.	c #F4AB49",
"0.	c #04182B",
"a.	c #9CB766",
"b.	c #9EB970",
"c.	c #942D15",
"d.	c #DE9D7E",
"e.	c #A5BE77",
"f.	c #0D4160",
"g.	c #F6B559",
"h.	c #0E4565",
"i.	c #053C5C",
"j.	c #A83B15",
"k.	c #E2A88B",
"l.	c #F7C16F",
"m.	c #4B2422",
"n.	c #ADC381",
"o.	c #0C587E",
"p.	c #C6A476",
"q.	c #938574",
"r.	c #E6B297",
"s.	c #B5C98B",
"t.	c #04476C",
"u.	c #0F5377",
"v.	c #812014",
"w.	c #BECF96",
"x.	c #588216",
"y.	c #0D557A",
"z.	c #EABDA4",
"A.	c #114E70",
"B.	c #FBD798",
"C.	c #EEC8B2",
"D.	c #C7D6A3",
"E.	c #0E5073",
"F.	c #D1DDB2",
"G.	c #F2D4C2",
"H.	c #DAC5A8",
"I.	c #DCE5C2",
"J.	c #F7E2D4",
"K.	c #FDE6BC",
"L.	c #C2B9A9",
"M.	c #0B4869",
"N.	c #054061",
"O.	c #E8EDD5",
"P.	c #F7F4E6",
"Q.	c #FCFCFB",
"R.	c #E8F4FA",
"S.	c #0B4C6F",
"T.	c #054466",
"U.	c #1E6AA2",
"V.	c #4B93CB",
"W.	c #5299CF",
"X.	c #599FD2",
"Y.	c #61A4D5",
"Z.	c #69AAD8",
"`.	c #73B0DC",
" +	c #7EB7DF",
".+	c #709EBC",
"++	c #428FC9",
"@+	c #4797D0",
"#+	c #89BEE3",
"$+	c #96C6E7",
"%+	c #A4CEEA",
"&+	c #2C7DBE",
"*+	c #3B8AC7",
"=+	c #B3D7EE",
"-+	c #2F82C2",
";+	c #C4E0F2",
">+	c #2678BB",
",+	c #176DB5",
"'+	c #227CC0",
")+	c #D6EAF6",
"!+	c #0A5E87",
"~+	c #0B5B82",
"{+	c #04486C",
"]+	c #05537A",
"^+	c #1066B0",
"/+	c #1D73B9",
"(+	c #125B96",
"_+	c #064A85",
":+	c #054E73",
"<+	c #095FAB",
"[+	c #3785C3",
"}+	c #055077",
"|+	c #C27E24",
"1+	c #FEEED0",
"2+	c #044B70",
"3+	c #AB6A18",
"4+	c #F5A82F",
"5+	c #F8BE62",
"6+	c #0257A5",
"7+	c #EF9628",
"8+	c #FAD189",
"9+	c #F6B34E",
"0+	c #CA6E09",
"a+	c #DC8318",
"b+	c #F39F26",
"c+	c #FAC86B",
"d+	c #F7B03A",
"e+	c #015F8F",
"f+	c #FACA7B",
"g+	c #FCDFA9",
"h+	c #004F9E",
"i+	c #016597",
"j+	c #ED8D1B",
"k+	c #025C8B",
"l+	c #F09520",
"m+	c #04567E",
"n+	c #045982",
"o+	c #07618B",
"p+	c #06648E",
"q+	c #045D87",
"r+	c #FABF53",
"s+	c #056995",
"t+	c #F9B943",
"u+	c #056692",
"v+	c #006699",
"w+	c #046B98",
"x+	c #046D9B",
"y+	c #03709E",
"z+	c #006597",
"A+	c #0272A1",
"B+	c #0274A4",
"C+	c #00689C",
"D+	c #0175A6",
"E+	c #006BA0",
"F+	c #006DA3",
"G+	c #0077A8",
"H+	c #0079AB",
"                                                      = ; ; , , , , ; ; 2                                                       ",
"                                            = ; , ) ^ _ 6 h e e e 7 n l ( | o , 2 2                                             ",
"                                        ; , ^ k d a c b b b a a i i i 0 0 d 8 n < { , ;                                         ",
"                                  = ; j g d b b a a a i i 0 0 d d d 9 9 8 8 8 e e h 6 4 ) ,                                     ",
"                                ; { k 0 a i i 0 0 0 d d 9 9 8 8 8 e e h h 7 7 7 f f n n g / ! ;                                 ",
"                            = ) : d 0 0 d d d 9 9 8 8 e e h h 7 7 7 f f n n k k 6 6 6 g g l _ ^ 2 2                             ",
"                          2 [ h d 9 9 8 8 8 e e h h 7 7 f f n k k k 6 6 g g g l l : : : _ _ _ 5 ( j 2                           ",
"                      3 = < 8 8 e e h h 7 7 f f n n k k 6 6 g g l l : : : _ _ _ _ 5 5 5 < < < < m ( | 2 =                       ",
"                    = ) l h h 7 7 f f n n k k 6 g g l l : : : _ _ 5 5 5 < < < < m m m m ( ( ( ( ( / / } 3 3                     ",
"                  3 ! g f f n n k 6 6 g g l l : : _ _ 5 5 < < < m m ( ( ( ( ( / / / / / / u u u u u u u w t 3                   ",
"                3 ! : k k 6 6 g g l : : _ _ 5 5 < < m ( ( ( / / / / 4 4 4 4 4 4 4 4 4 p p p p p p p p p r } t t                 ",
"              t s 5 g g l l : : _ _ 5 < < m m ( ( / / 4 4 4 4 [ [ [ [ [ [ [ [ ^ [ r r r r r r r r r r r w w ] 3 t               ",
"              t ( : : _ _ 5 5 5 < m m ( ( / / 4 y y G G y y ^ ^ ^ ^ | | | | | } } } } } } } w w w w w w w w w q t               ",
"            t [ _ 5 5 < < m m m ( / / u 4 y H I I I I J J J I H y { { { { { { { { { ] ] ] ] ] } D D D D D D D D B t             ",
"          % ~ < < m m m v v v u u 4 p y H M M I I I I J J J L L L H | j j j j ~ ~ ~ ~ { { q q ] ] E D E E E E E E s %           ",
"          s u v v v v v u u u p p r ^ H R M M M I I J J L L L W O O L N ! ! ! j j j j ~ ~ ~ ~ q q q E E E E E E E V F           ",
"        * } v v v x x x p p r r w } ^ R R M M I I J J L W W W W O O O N ) ) ) ) ! ! ! ! 1 1 ~ ~ B q q q q E E E E E Y &         ",
"      * K x x x x x z z r w w } } ] G R R M I I J L W W Z Z Z ` ` ` L o =.*.=.o o ) ) ) ! ! 1 1 B B B B V V V V V V V  .*       ",
"       .D x z z z z z w w D } ] q { H R M M I J L W W Z ` ` ].].].].H o }.,.,.}.=.o o o ) ) ! 1 1 1 B | =.~.V V V V V Y  .      ",
"      K z z z z A A w D D ] ] q ~ j R R M I J L W Z ` ` ].].[.[.[.[.P o $.|._.,.&.*.@.=.N j j =.=.=.:.:.^.~.V V V V V V T       ",
"     .V z A A A A A D D E q q ~ 1 P R M +.J L W Z ` ].].[.[.2.2.2.[.' =.4.5.|._.,.&.$.*.!.!.3.7.7.:.:.:./.B X V V V V V Y T     ",
"    T S A A A A S D E E q B ~ 1 ! '...{.+.I L W Z ].].[.2.2.d.d.d.Z 0.3.b.b.5.|._.&.$.*.}.!.3.7.7.:.:.:.(.X X V #.#.#.#.X T     ",
"  8.Y A A S S S S E E V B 1 s 3 ; ..{.+.I L W ` ].[.2.d.d.k.k.k.k.G 0.*.n.e.b.5.|._.&.$.*.}.!.3.7.7.:.^.~.X X X #.#.#.#.#.K T   ",
"  8.V S S S S S E V X K K s t 2 N ..{.+.J W ` ].[.2.d.k.k.r.r.r.r.N U a.s.s.n.e.5.|._.&.$.*.!.3.7.7.:.^.~.Y X X #.#.#.#.-.f.8.  ",
"  8.E S S S -.#.h.X Y K s s 3 ; P {.+.J W Z ].[.2.d.k.r.z.z.z.C.k.0.:.s.w.w.s.n.b.5.|.,.&.*.}.!.3.7.7./.K Y X X #.#.-.-.-.h.8.  ",
"  i.S A.-.-.#.#.X X Y K s F 3 ; ..{.+.L Z ` [.2.d.k.r.z.C.C.G.G.q.0.}.D.D.D.w.s.n.b.5._.&.$.*.!.!.3.:./.K Y X h.#.#.-.-.-.-.i.  ",
"8.N.A.A.-.-.-.#.h.f.Y K s t = o {.+.J W W Z ` ].2.k.z.C.G.G.J.J.y ' 5.I.F.D.w.s.n.e.b.|.,.&.*.}.!.3.:.~.K Y f.h.#.-.-.-.A.A.i.  ",
"i.h.A.A.A.-.-.#.h.f.Y K s t = P {.R ..c.v.v.v.v.v.c.J k.G.J.J.O.' =.w.O.I.F.D.w.s.n.b.5._.&.$.*.!.3.:.~.K Y f.h.#.-.-.A.A.A.f.i.",
"N.M.A.A.A.A.-.-.h.f.Y K s t 2 P c.m.m.' 6., ) o 6.0.' m.R r.P.a 0.3.I.O.I.I.F.D.w.n.e.5.|.,.$.*.}.!.^.s K Y f.h.-.-.A.A.A.A.M.N.",
"N.M.E.A.A.A.-.-.h.f.Y K s t 2 , o -.U.Q W.Y.`. +#+9 k { ' m.H q.0._.P.P.O.I.F.D.w.s.e.b.|._.&.$.}.3.^.s K Y f.h.-.-.A.A.E.E.M.N.",
"N.S.u.E.A.A.-.-.h.f.Y K s t 3 y./+-+++@+X.Z. +#+$+=+;+;+d { 0.0.U w.Q.P.O.I.F.D.w.s.n.b.a._.%.$.}.3.=.s K Y f.h.-.A.A.E.E.u.S.N.",
"N.S.u.u.E.E.A.-.M.f.Y K s t E./+'+-+++@+X.Z.`.#+$+=+;+)+R.R.6 6.N ,.I.P.O.I.F.D.w.s.n.b.a._.%.$.*.x.! T K Y h.M.-.A.E.E.u.u.S.T.",
"T.E.u.u.u.E.A.A.M.h.f.K T t (+/+'+-+*+@+X.Z.`.#+$+%+;+)+R.Q.0 6.6.U :.b.F.I.F.D.w.s.n.b.a.4.%.*.:.=.F T K f.h.M.A.E.E.u.u.u.S.T.",
"T.E.y.u.u.u.E.A.M.h.f.Y T  .^+,+'+-+*+V.W.Y.`.#+$+%+=+;+)+R.: ' q.g 6.U ^.*.b.n.n.n.b.|.&.!.^.~.3 3 F T K f.h.M.A.E.u.u.u.y.S.T.",
"T.:+y.y.y.u.E.E.S.h.f.Y T + ^+,+/+&+[+++W.Y.Z. +#+%+=+;+)+)+o '.g+P.L.y 6.' U ~.~.~.~.~.~.> o '.3+N * T Y f.M.S.E.E.u.y.y.y.S.+ ",
"{+:+o.y.y.y.u.E.S.M.h.Y T _+^+,+/+>+-+++V.X.Z.`.#+$+%+=+;+0 6.|+K.1+1+1+H.q.y U 6.6.' P H O ).).0+j  .K Y h.M.S.E.u.y.y.y.o.:+t.",
"+ :+o.o.o.y.y.E.E.M.h.f.8.h+<+^+,+>+-+*+V.W.Y.`. +#+$+%+=+g 6.;.1+1+K.K.g+g+B.8+l.l.5+g.9.1.<.7+3+%  .K f.h.M.E.u.y.y.o.o.o.:+@ ",
"@ 2+o.o.o.o.y.u.E.S.M.f.T.6+<+^+,+/+&+[+++V.X.Z.`. +#+$+%+] P l.K.K.K.g+g+B.8+8+f+l.g.g.9.1.).a+'.* T i.f.M.S.E.u.y.o.o.o.o.2+  ",
"  2+~+~+~+o.o.y.u.S.M.h._+6+6+<+^+,+>+&+[+++W.X.Z.`. +#+`.6.'.8+g+g+g+B.B.8+8+f+l.5+g.9.1.<.).0+N  .8.N.T.M.E.u.y.o.o.~+~+o.2+  ",
"  2+o.~+~+~+o.o.y.E.S.M._+6+6+<+<+,+/+>+-+*+V.W.X.Z.`. +C 6.|+B.g+B.B.B.8+8+f+l.5+g.9+9.1.).7+3+s T i.N.M.S.E.y.o.o.~+~+~+o.2+  ",
"  :+]+!+~+~+~+o.y.y.E.S.h+h+6+6+<+^+,+/+&+-+*+V.W.X.Y.Z.w U 1.B.B.8+8+8+f+f+l.5+g.g.9.1.<.).a+'. .8.N.T.S.E.y.y.o.~+~+~+~+]+:+  ",
"  }+]+!+!+!+~+~+o.y.u.$ h+h+h+6+6+<+^+,+>+&+[+*+++V.X.W.; '.g.8+8+8+f+f+l.l.5+g.g.9.1.<.).7+a+P 8.i.T.M.S.u.y.o.~+~+!+!+!+}+}+  ",
"    }+!+!+!+!+~+~+o.y._+h+h+h+h+6+<+<+^+,+>+&+-+*+++V.Q > 3+5+f+f+c+c+c+5+5+g.9+9.9.1.<.).l+0+j i.N.M.S.}+y.o.~+~+!+!+!+~+}+    ",
"    ]+n+o+!+!+!+!+~+o.h+h+6+(+(+(+(+~+_+_+(+U.>+-+[+*+A > a+c+c+c+c+5+5+g.g.9+9.1.1.<.).7+a+3+i.N.T.S.:+]+o.~+!+!+!+!+o+m+]+    ",
"      ]+o+o+o+!+!+!+~+(+U.(+o.@ N.i.T  .* T + _+U.&+-+T P <.5+5+5+r+r+r+9+9+9.1.1.<.).7+l+a+G N.T.@ :+]+o.~+!+!+!+o+o+o+]+      ",
"      ]+q+p+o+o+o+!+!+(+~+]+:+@ T.N.i.8. .& t t i._+(+, '.9.r+r+r+r+9+9+9.9.1.<.<.).7+l+j+0+| T.@ :+]+o.~+!+!+o+o+o+o+q+m+      ",
"      ]+m+p+p+p+p+o+o+!+~+o.]+:+2++ N.i.8.T  .F t % t 2 |+t+t+t+t+t+t+d+d+1.4+).).7+l+j+a+3+h.@ :+]+m+~+!+!+o+p+p+p+p+m+        ",
"        n+q+u+p+p+p+o+o+!+~+o.]+}+2+t.T.N.i.8. . .& % ) |+<.t+t+d+d+d+d+4+4+b+b+7+l+j+j+a+H 2+:+]+m+~+!+o+o+p+p+p+u+q+m+        ",
"          n+p+u+u+u+p+p+o+!+q+n+]+}+:+@ + N.i.i.8.T  . .N 3+a+<.d+4+4+4+4+b+b+l+l+l+j+j+0+y }+]+n+q+!+o+p+p+u+u+u+p+n+          ",
"          n+q+s+s+u+u+u+p+o+o+q+n+m+]+:+2+{+T.N.N.i.i.8.8.T P 3+a+j+7+b+b+b+l+j+j+a+|+H [ ]+m+n+q+o+o+p+u+u+u+u+u+q+q+          ",
"            q+p+s+s+s+s+u+u+p+o+q+q+n+m+]+:+2+{++ T.N.N.i.i.i.i.| G H +.3++.+.H G y A.}+m+n+n+q+o+p+p+u+s+s+s+s+o+q+            ",
"              q+u+w+w+s+s+s+u+p+p+o+q+n+n+m+]+}+:+2+@ t.+ T.T.T.T.T.T.+ t.{+# :+}+]+m+n+n+q+o+p+p+u+s+s+s+s+w+u+q+              ",
"              k+k+s+w+w+w+w+s+s+u+u+p+o+q+q+n+m+]+]+}+:+:+:+2+2+2+2+:+:+:+}+]+]+m+n+q+q+o+p+u+u+s+s+w+w+w+w+s+k+                ",
"                e+e+w+x+x+x+w+w+s+s+u+u+p+o+o+q+n+n+m+m+m+]+]+]+]+]+]+m+m+m+n+n+q+o+o+p+p+u+s+s+w+w+x+x+x+w+e+e+                ",
"                  e+e+w+y+x+x+x+x+w+w+s+s+u+u+p+o+o+q+q+q+q+n+n+n+n+q+q+q+q+o+o+p+u+u+s+s+w+w+x+x+x+x+x+w+e+e+                  ",
"                    e+e+w+y+y+y+y+x+x+x+w+w+s+s+u+u+u+p+p+p+p+p+o+p+p+p+p+u+u+u+s+s+w+w+x+x+x+y+y+y+y+w+e+e+                    ",
"                      e+i+v+A+A+A+y+y+y+y+x+x+x+w+w+w+s+s+s+s+s+s+s+s+s+s+w+w+w+x+x+x+y+y+y+y+y+A+A+v+i+                        ",
"                          i+v+y+A+A+A+A+A+A+y+y+y+y+x+x+x+x+x+x+x+x+x+x+x+x+y+y+y+y+y+A+A+A+A+A+y+v+z+                          ",
"                            i+z+E+B+B+B+B+B+B+A+A+A+A+A+y+y+y+y+y+y+y+A+A+A+A+A+A+B+B+B+B+B+B+C+z+i+                            ",
"                                v+C+E+B+D+D+D+D+B+B+B+B+B+B+B+B+B+B+B+B+B+B+B+B+D+D+D+D+B+E+C+v+                                ",
"                                    v+C+E+B+G+G+G+G+G+G+G+G+D+D+D+D+G+G+G+G+G+G+G+G+B+E+C+C+                                    ",
"                                        C+E+E+F+D+G+H+H+H+H+H+H+H+H+H+H+H+H+G+D+F+E+E+C+                                        ",
"                                              C+E+E+E+F+B+D+D+D+D+D+D+B+F+E+E+E+C+                                              ",
"                                                      C+E+E+E+E+E+E+E+E+E+                                                      "};
