/* XPM */
const char * quit_64_xpm[] = {
"64 64 257 2",
"  	c None",
". 	c #D40006",
"+ 	c #B3030E",
"@ 	c #C9010A",
"# 	c #E00004",
"$ 	c #E30D27",
"% 	c #C80109",
"& 	c #CE0106",
"* 	c #E10006",
"= 	c #E30E27",
"- 	c #E10417",
"; 	c #DE0005",
"> 	c #BA0311",
", 	c #E30D27",
"' 	c #E30E27",
") 	c #D2061A",
"! 	c #D40619",
"~ 	c #E30E27",
"{ 	c #E30D27",
"] 	c #BA0311",
"^ 	c #BA0311",
"/ 	c #D40005",
"( 	c #E30D25",
"_ 	c #BC0210",
": 	c #E20517",
"< 	c #C80109",
"[ 	c #D30310",
"} 	c #D00413",
"| 	c #D90517",
"1 	c #E1010D",
"2 	c #BB0210",
"3 	c #BB0210",
"4 	c #CF0210",
"5 	c #D60005",
"6 	c #DA0005",
"7 	c #BA0311",
"8 	c #BA0311",
"9 	c #E2061B",
"0 	c #BC0210",
"a 	c #D10417",
"b 	c #CD020E",
"c 	c #CE020E",
"d 	c #D1020E",
"e 	c #D2020E",
"f 	c #E2061C",
"g 	c #E1010B",
"h 	c #E3061E",
"i 	c #E30D25",
"j 	c #E30D25",
"k 	c #CC0517",
"l 	c #BB0210",
"m 	c #BC0311",
"n 	c #BA0311",
"o 	c #E0061B",
"p 	c #000000",
"q 	c #DD4D55",
"r 	c #9A3D44",
"s 	c #361E20",
"t 	c #BC4A52",
"u 	c #C16269",
"v 	c #D8676F",
"w 	c #BE010C",
"x 	c #EB5F6A",
"y 	c #E21E25",
"z 	c #861721",
"A 	c #61292D",
"B 	c #833035",
"C 	c #50171C",
"D 	c #A4434A",
"E 	c #E2A9AE",
"F 	c #B75E64",
"G 	c #E83549",
"H 	c #E73141",
"I 	c #E4797E",
"J 	c #BD1122",
"K 	c #E98287",
"L 	c #EF848D",
"M 	c #D7626A",
"N 	c #F1999F",
"O 	c #DD6D75",
"P 	c #ED6974",
"Q 	c #E93F4F",
"R 	c #A55B60",
"S 	c #DB7E85",
"T 	c #C21F2D",
"U 	c #6E3539",
"V 	c #D1030B",
"W 	c #D8030B",
"X 	c #B66B71",
"Y 	c #CE0413",
"Z 	c #8A3C41",
"` 	c #C8868B",
" .	c #A95258",
"..	c #DF888F",
"+.	c #E3959B",
"@.	c #D1858A",
"#.	c #D25A63",
"$.	c #C82935",
"%.	c #C50106",
"&.	c #E62939",
"*.	c #D1202A",
"=.	c #EF979C",
"-.	c #F4B9BE",
";.	c #995258",
">.	c #D60B15",
",.	c #F2B1B6",
"'.	c #CF0005",
").	c #C9323E",
"!.	c #930A14",
"~.	c #E20112",
"{.	c #A2111F",
"].	c #EF7A86",
"^.	c #421F21",
"/.	c #E4121C",
"(.	c #DF0713",
"_.	c #DA0003",
":.	c #9A060E",
"<.	c #A5050C",
"[.	c #C47D82",
"}.	c #CA3E4A",
"|.	c #FAEBED",
"1.	c #E59DA2",
"2.	c #66252A",
"3.	c #4F2225",
"4.	c #D28F94",
"5.	c #F4A5AC",
"6.	c #AC6368",
"7.	c #6B2B30",
"8.	c #844246",
"9.	c #E8B3B7",
"0.	c #7E3A3F",
"a.	c #BD0B1B",
"b.	c #94474D",
"c.	c #EA4955",
"d.	c #D59498",
"e.	c #8B4045",
"f.	c #D7131F",
"g.	c #E5192E",
"h.	c #E51329",
"i.	c #BC020A",
"j.	c #CD8B90",
"k.	c #910910",
"l.	c #9F555B",
"m.	c #A90512",
"n.	c #6C2228",
"o.	c #F4D2D5",
"p.	c #5E181E",
"q.	c #B4030B",
"r.	c #66141B",
"s.	c #EF8D94",
"t.	c #A56065",
"u.	c #6A252B",
"v.	c #850B11",
"w.	c #BA767A",
"x.	c #EF7882",
"y.	c #9C0714",
"z.	c #D99CA0",
"A.	c #EB5364",
"B.	c #781014",
"C.	c #EAB7BB",
"D.	c #E5AEB2",
"E.	c #B00410",
"F.	c #F8D4D7",
"G.	c #6C1319",
"H.	c #753135",
"I.	c #970912",
"J.	c #EB4E5D",
"K.	c #651F24",
"L.	c #F2C3C7",
"M.	c #AE686D",
"N.	c #711B23",
"O.	c #850C17",
"P.	c #B36F75",
"Q.	c #EF737C",
"R.	c #D9091F",
"S.	c #F2A2A7",
"T.	c #823C41",
"U.	c #DAA2A6",
"V.	c #F4CDD0",
"W.	c #FBE3E4",
"X.	c #8B454B",
"Y.	c #DEA7AB",
"Z.	c #65191F",
"`.	c #751017",
" +	c #A20612",
".+	c #7C0E15",
"++	c #78141C",
"@+	c #D90003",
"#+	c #954F54",
"$+	c #800E17",
"%+	c #E52034",
"&+	c #722A30",
"*+	c #C38488",
"=+	c #E30004",
"-+	c #EEBFC2",
";+	c #BD0210",
">+	c #C90109",
",+	c #FDEEEF",
"'+	c #CB0107",
")+	c #FEF0F1",
"!+	c #BC7A7F",
"~+	c #F9DFE1",
"{+	c #CD0106",
"]+	c #F1CACD",
"^+	c #E10113",
"/+	c #7B353A",
"(+	c #D3979B",
"_+	c #F9DADD",
":+	c #F4A9B0",
"<+	c #E10210",
"[+	c #8B0B13",
"}+	c #C0020E",
"|+	c #D8747C",
"1+	c #D70003",
"2+	c #FCE6E8",
"3+	c #C60109",
"4+	c #711218",
"5+	c #FFFCFC",
"6+	c #FFF3F4",
"7+	c #E10109",
"8+	c #FAD8DB",
"9+	c #B60311",
"0+	c #E30A21",
"a+	c #E1010B",
"b+	c #FEEAEB",
"c+	c #E20419",
"d+	c #CD4A54",
"e+	c #E7A8AD",
"f+	c #BF1524",
"g+	c #6B181E",
"h+	c #F3D6D9",
"i+	c #E10006",
"j+	c #FFFEFE",
"k+	c #D10106",
"l+	c #B9010D",
"m+	c #C3010B",
"n+	c #E3061A",
"o+	c #DB0004",
"p+	c #BA0312",
"q+	c #DF0005",
"r+	c #DD0005",
"s+	c #E2091C",
"t+	c #E00003",
"u+	c #D40005",
"v+	c #BA0210",
"w+	c #E30217",
"x+	c #B9010C",
"y+	c #BC0211",
"z+	c #E00004",
"A+	c #E30B23",
"B+	c #FEF7F8",
"C+	c #E00006",
"D+	c #E3071F",
"E+	c #E30D25",
"F+	c #FFF9F9",
"G+	c #FFFFFF",
"H+	c #BA0311",
"                                                                                                                                ",
"                                      ^+^+^+^+^+^+^+^+^+^+^+^+^+^+^+^+^+^+^+^+^+^+^+^+^+^+k+                                    ",
"                                    ~.h h h h h h h h h h ^+^+^+^+^+^+^+^+^+^+=+=+=+=+=+=+=+u+                                  ",
"                                  ~.D+h h h h h h h h h c+c+c+c+w+w+~.~.~.~.g i+=+t+t+t+t+t+_.u+                                ",
"                                ~.D+h J.5.:+:+:+:+:+:+:+:+:+:+:+:+5.5.5.5.5.5.5.S.S.S.S.Q.a+t+_.u+                              ",
"                            k+~.D+h A.~+)+_+_+_+_+_+_+_+8+8+8+8+8+8+8+8+8+8+8+8+8+8+8+~+B+s.a+_._.u+                            ",
"                          k+  D+h x 2+~+A.g.%+g.g.g.g.g.g.g.g.h.h.h.A+A+A+            /.S.F+=.a+_._..                           ",
"                        ^+  h h P b+8+J.h h h c+w+w+w+w+w+~.~.~.~.~.g =+=+t+t+t+t+t+t+t+a+N F+N a+_._..                         ",
"                      w h h h Q.)+F.Q h h h h c+w+w+w+w+w+~.~.~.~.g i+=+t+t+t+t+t+t+t+t+_.a+=.F+S.W _._.'.                      ",
"                    W h h A+].6+V.Q h h h h c+w+w+w+w+w+~.~.~.~.g i+=+t+t+t+t+t+t+t+t+_._._.a+s.B+S.>.1+_.'.                    ",
"                  W w+h A+L B+L.G h h h h c+w+w+w+w+w+~.~.~.~.g i+=+t+t+t+t+t+t+t+t+_._._._._.@+s.B+:+>.'.1+'.                  ",
"                u+D+h h.s.B+-.H h h h h c+w+w+w+w+w+~.~.~.~.g i+=+t+t+t+t+t+t+t+t+_._._._._._._.@+K B+,.>.'.1+'.                ",
"              u+D+h h.N F+,.%+h h h h c+w+w+w+w+w+~.~.~.~.g i+=+t+t+t+t+t+t+t+t+_._._._._._._.1+1+u+K B+,.*.'.'.k+              ",
"            . h h g.S.F+:+g.h h h h c+w+w+w+w+w+~.~.~.~.g i+=+t+t+t+t+t+t+t+t+_._._._._._._.1+1+1+1+u+I 6+-.*.'.'.k+            ",
"          '.h h %+:+F+S.g.h h h h c+w+w+w+w+w+~.~.~.~.g i+=+t+t+t+t+t+t+t+t+_._._._._._._.1+1+1+1+1+'.u+I 6+-+*.%.'.w           ",
"        '.D+h %+,.F+=.h.h h h h c+w+w+w+w+w+~.~.~.~.g i+=+t+t+t+t+t+t+t+t+_._._._._._._.1+1+1+1+1+'.'.'.'.O )+L.$.%.w w         ",
"      k+D+h H -.B+s.h.h h h h c+w+w+w+w+w+~.~.~.~.g i+=+t+t+t+t+t+t+t+t+_._._._._._._.1+1+1+1+1+'.'.'.'.'.'.O )+]+).%.w w       ",
"    ~.D+h G L.6+L A+h h h h c+w+   + +  ~.~.~.~.g i+=+t+t+t+t+t+t+t+t+t+_._._._._._.1+1+1+1+1+'.'.'.'.'.'.%.%.v ,+V.).x+x+x+    ",
"  ~.D+h Q V.)+x.A+>.O.4+B.B.B.B.G.&+u. +~.~.& :.v.B.v.:.%.t+t+t+t+t+_.%.k.B.B.v.:.%.1+%.v.`.`.`.4+`.`.B.:.%.%.%.M |.o.}.x+x+x+  ",
"~.D+h c.F.,+Q.h h  +/+[.*+*+*+*+*+C.w.B.~. +Z.X.P.*+w.#+n.k.1+t+t+'.v.n.;.!+*+P.8.r.:.:.H.[.*+*+*+*+*+M./+r.<.%.w #.|.h+}.x+x+x+",
"h h G 8+b+P h h h a.&+L.G+G+G+G+G+G+9.N.B.H.(+2+5+G+j+,+D.X.B.1+'.4+#+C.)+j+G+5+W.4.H.4+n.9.G+G+G+G+G+F+F.X Z.<.x+x+#.2+h+$.x+w ",
"h h A.F+s.h h h h   4+Y.G+B+~+~+~+~+F.8.U 9.j+G+F+)+F+G+G+o.X.v.B.;._+G+G+B+)+5+G+5+E u.^.(+G+5+,+,+)+5+G+,+6.r.x+x+x+..B+d+x+w ",
"h h A.F+].c+h h h   4+Y.G+]+Z U U /+ .t 4.j+G+]+P.#+6.9.F+G+9.2.u.L.G+B+E t.#+w.o.G+5+*+C (+G+b+F X.b.` ,+G+]+&+:.w x+|+B+d+x+w ",
"h h A.F+].h h h c+  4+Y.G+-+n.^.C r C r ~+G+V.Z v.<.v.&+D.G+6+R M.F+G+U.N.v.:.`.b._+G+o.B (+G+W.0.B.k.r.(+G+)+#+v.w x+|+B+d+x+w ",
"h h A.F+].c+h c+w+  4+Y.G+|.9.D.C.@.^.t.F+j+!+B._.=+t+k.l.)+G+..+.G+b+X.k.1+1+%.4+j.G+6+ .d.G+W.T.:.%.B.M.5+F+t.v.w x+|+B+d+x+w ",
"h h A.F+].w+c+w+w+  4+Y.G+G+G+G+B+t.s P.j+B+R k.=+t+=+q.T.W.G+N :+G+8+H.x+1+1+1+v.P.5+F+F d.G+W.T.:.%.B.M.5+F+t.v.w x+|+B+d+x+w ",
"h h A.F+].w+w+w+w+  4+Y.G+,+-+]+V./+r.6.F+5+w.B._.=+t+k.#+)+G+..1.G+2+e.k.1+1+%.r.` G+6+ .d.G+W.T.:.%.B.M.5+F+t.v.w x+|+B+d+x+w ",
"h h A.F+x.~.w+w+w+  4+Y.G+-+&+H. .4+:.e.W.G+L./+v.<.v.N.U.G+B+R X 5+j+d.Z.v.:.4+Z o.G+8+B (+G+W.0.B.k.p.4.G+)+;.v.w x+|+B+d+x+w ",
"h c+A.B+x.~.w+w+w+  4+Y.G+-+N.:.B.q.1+G.(+G+j+-+t.8.;.Y.B+G+-+2.U ]+G+6+z.#+8.M.]+G+5+j.C (+G+2+ .0.T.w.2+G+V.H.:.w x+|+B+d+x+w ",
"h w+J.B+x.~.w+w+~.  4+Y.G+-+N.u+t+t+=+<./+-+G+G+6+b+)+j+G+_+#+v.B.l.W.G+j+)+b+B+G+j+9.H.^.(+G+5+2+W.2+B+G+6+P.G.x+x+x+|+B+d+x+w ",
"h w+J.B+x.~.w+~.~.  &+-+G+F./+<.t+t+t+_.k.T.Y.,+G+G+G+B+-+#+`.%.%.G.l.L.B+G+G+j+,+z./+r.K.D.G+G+G+G+G+j+~+!+Z.<.x+x+x+|+B+d+x+w ",
"h ~.J.B+x.~.~.~.~. +/+j.(+d.e.v.=+t+t+t+_.:.N.#+*+(+` t.&+v.%.1+1+%.B.&+t.j.(+[.#+Z.k.k.H.@.(+(+(+(+d.!+e.r.:.x+x+x+x+|+B+d+x+w ",
"w+~.J.B+x.~.~.~.~.& O.B.B.B.v.%.t+t+t+t+t+_.%.:.v.B.B.k.x+1+1+1+'.1+'.<.v.`.`.B.k.q.%.q.B.G.G.G.G.G.G.`.k.q.x+x+x+x+x+|+B+d+x+w ",
"w+~.J.B+x.~.~.~.g i+=+t+t+t+t+=+=+t+t+t+t+1+q.%._.1+1+1+1+x+<.'.'.'.'.'.'.%.%.%.%.%.w w x+x+x+x+x+x+x+x+w x+x+x+x+x+x+|+B+d+x+w ",
"w+~.J.B+Q.g ~.g i+=+t+t+t+t+t+%.k.v.v.:.k.`.u.r.B.B.B.B.`.Z.K.:.'.'.%.:.v.`.B.v.<.w x+:.4+4+4+4+4+`.v.<.x+x+x+x+x+x+x+|+B+d+x+w ",
"w+~.J.B+Q.i+g i+=+t+t+t+t+_.k.n.;.P.M.X./+C +.4.!+!+!+!+!+z.[.4+%.<.r./+t.w.P.#+K.`.<.r.l.!+!+!+!+P.X.Z.k.x+x+x+x+x+x+|+B+d+x+w ",
"w+~.J.B+Q.i+i+=+t+t+t+t+t+k.T.9.)+j+5+b+@.Z ~+G+G+G+G+G+G+G+-+n.v.K.!+F.F+G+5+,+9.#+p.p.6.6+G+G+G+j+b+j.K.:.x+x+x+x+x+|+B+d+x+w ",
"w+~.c.B+Q.=+=+t+t+t+t+=+%.n.D.G+j+B+5+G+4.u b+2+2+F+G+6+2+2+~+X.C d.B+G+5+B+F+G+G+~+l.^.8.b+G+)+2+)+G+F+!+r.x+x+x+x+x+|+B+d+x+w ",
"w+g c.B+Q.t+t+t+t+t+t+=+<.X.b+G+-+R !+_++.M l.T.b.o.G+D.Z T.6.t X 6+G+~+` l.6.E B+G+]+U 8.b+G+@.T.l.V.G+]+u.<.x+x+x+x+|+B+d+x+w ",
"w+i+c.B+Q.t+t+t+t+t+t+=+<.#+)+G+U.u.^.b.u N.v.k.n.]+G+U.p.:.r.B L.G+2+l.r.v.B.N.z.j+5+w.e.b+G+w.C C j.G+~+/+:.w x+x+x+|+B+d+x+w ",
"=+i+c.B+Q.t+t+t+t+t+t+t+x+/+F.G+F+V.` 0.C k.1+%.&+]+G+U.G.%.k.X.b+G+z.r.<.w w v.e.W.G+Y.D b+G+w.C T.C.G+F.H.:.w x+x+x+|+B+d+x+w ",
"=+=+c.B+P t+t+t+t+t+t+t+'.p.X W.G+G+j+o.#+v.1+x+&+]+G+U.G.%.k.;.6+G+!+4+x+x+x+<.&+V.G+C.D |.G+1.4.8+5+G+z.Z.q.x+x+x+x+|+B+d+x+w ",
"=+t+c.F+x.t+t+t+t+t+_._.:.u.2.X.4.F.5+G+C.n.%.x+&+]+G+U.G.%.k.b.,+G+4.r.q.w w k./+_+G+D.D b+G+F+j+G+B+D./+v.x+x+x+x+x+S B+d+x+w ",
"=+t+%+_+W.c.t+t+t+_._._.v.6.[.C s /+-+G+~+0.<.x+&+]+G+U.G.w <.H.V.G+_+e.r.:.v.p.*+5+G+[.e.b+G+j+b+9.M.n.v.x+x+x+x+x+d+~+~+).x+w ",
"~.t+t+Q 8+2+J.t+_._._._.v.P.)+d.X.X.-+G+_+/+<.x+&+]+G+U.r.x+x+r.[.5+G+]+6.0.X.j.,+G+_+0.8.b+G+E b.N.`.:.x+x+x+x+x+d+W.~+d+x+w w ",
"  ~.t+t+H F.|.x _._._._.v.M.5+5+b+b+j+G+U.Z.%.x+&+]+G+U.r.x+w :.u.D.j+G+6+W.b+5+G+,+X ^.8.b+G+w.p.<.x+x+x+x+x+x+#.2+_+}.x+w w   ",
"    ~.t+t+%+V.)+P _._._.v.M.2+B+G+G+5+-+T.k.'.:.0._+G+C.K.<.w x+v.H.z.,+G+G+G+5+F.M.Z.p.l.)+G+j.r.q.x+x+x+x+x+#.|.h+}.x+x+w     ",
"      ~.t+_.g.L.6+Q.@+_.k.T.b.M.(+z.P.H.v.%.'.`.b.z.U.d./+v.w x+x+v.Z.#+*+z.(+P./+G.:.p.F U.U.@.K.:.w x+x+x+M |.o.}.x+x+x+      ",
"        ~.t+_./.-.B+K @+%.v.k.v.`.`.v.<.%.'.%.<.G.G.G.G.G.<.x+x+x+x+<.v.4+G.G.B.:.x+x+v.r.G.G.G.B.q.x+x+x+v ,+V.).x+x+x+        ",
"          k+1+_.>.:+B+s.W 1+1+1+'.'.'.'.'.%.%.%.w x+x+x+x+x+x+x+x+x+x+w x+x+x+x+w x+x+x+x+x+x+x+x+x+x+x+O )+]+).x+w w           ",
"            '.1+_.>.S.F+=.W '.'.'.'.'.%.%.%.%.%.%.w x+x+x+x+x+x+x+x+x+x+x+x+x+x+x+x+x+x+x+x+x+x+x+x+x+|+)+L.$.x+w w             ",
"              '._.1+W =.F+S.>.'.'.'.%.%.%.%.%.%.w x+x+x+x+x+x+x+x+x+x+x+x+x+x+x+x+x+x+x+x+x+x+x+x+x+S 6+-+$.x+x+w               ",
"                . _.1+W s.B+,.*.'.%.%.%.%.%.%.w x+x+x+x+x+x+x+x+x+x+x+x+x+x+x+x+x+x+x+x+x+x+x+x+  S B+C.f+x+x+k+                ",
"                  u+_.'.& K B+-.*.%.%.%.%.%.w x+x+x+x+x+x+x+x+x+x+x+x+x+x+x+x+x+x+x+x+x+x+x+x+  ..B+9.f+x+x+'.                  ",
"                    W '.'.& I 6+L.$.%.%.%.w x+x+x+x+x+x+x+x+x+x+x+x+x+x+x+x+x+x+x+x+x+x+x+x+  ..B+D.f+x+x+'.                    ",
"                      W w '.'.O ,+]+).%.w x+x+x+x+x+x+x+x+x+x+x+x+x+x+x+x+x+x+x+x+x+x+x+x+  +.B+e+a.x+x+'.                      ",
"                        w '.%.%.M |.o.}.x+x+x+x+x+x+x+x+x+x+x+x+x+x+x+x+x+x+x+x+x+x+x+x+a.1.F+1.a.x+x+'.                        ",
"                          ^+  %.%.#.2+_+d+a.a.a.a.a.a.a.a.a.a.a.a.a.a.a.a.a.a.a.a.a.a.f+1.F+1.a.x+x+.                           ",
"                            k+  w w d+~+,+h+h+h+h+h+h+h+h+h+h+h+h+h+h+h+h+h+h+h+h+h+h+~+B++.a.x+x+u+                            ",
"                                w w x+d+1.e+e+e+e+e+e+e+e+e+e+e+e+e+e+e+e+e+e+e+e+e+e+e+S   x+x+u+                              ",
"                                  w x+x+x+x+x+x+x+x+x+x+x+x+x+x+x+x+x+x+x+x+x+x+x+x+x+x+x+x+x+u+                                ",
"                                    x+x+x+x+x+x+x+x+x+x+x+x+x+x+x+x+x+x+x+x+x+x+x+x+x+x+x+w u+                                  ",
"                                      ^+w w w w w w w w w w w w w w w w w w w w w w w w w k+                                    ",
"                                                                                                                                "};
