/* XPM */
const char * quit_16_xpm[] = {
"16 16 257 2",
"  	c None",
". 	c #D40006",
"+ 	c #B3030E",
"@ 	c #C9010A",
"# 	c #E00004",
"$ 	c #E30D27",
"% 	c #C80109",
"& 	c #CE0106",
"* 	c #E10006",
"= 	c #E30E27",
"- 	c #E10417",
"; 	c #DE0005",
"> 	c #BA0311",
", 	c #E30D27",
"' 	c #E30E27",
") 	c #D2061A",
"! 	c #D40619",
"~ 	c #E30E27",
"{ 	c #E30D27",
"] 	c #BA0311",
"^ 	c #BA0311",
"/ 	c #D40005",
"( 	c #E30D25",
"_ 	c #BC0210",
": 	c #E20517",
"< 	c #C80109",
"[ 	c #D30310",
"} 	c #D00413",
"| 	c #D90517",
"1 	c #E1010D",
"2 	c #BB0210",
"3 	c #BB0210",
"4 	c #CF0210",
"5 	c #D60005",
"6 	c #DA0005",
"7 	c #BA0311",
"8 	c #BA0311",
"9 	c #E2061B",
"0 	c #BC0210",
"a 	c #D10417",
"b 	c #CD020E",
"c 	c #CE020E",
"d 	c #D1020E",
"e 	c #D2020E",
"f 	c #E2061C",
"g 	c #E1010B",
"h 	c #E3061E",
"i 	c #E30D25",
"j 	c #E30D25",
"k 	c #CC0517",
"l 	c #BB0210",
"m 	c #BC0311",
"n 	c #BA0311",
"o 	c #E0061B",
"p 	c #000000",
"q 	c #DD4D55",
"r 	c #9A3D44",
"s 	c #361E20",
"t 	c #BC4A52",
"u 	c #C16269",
"v 	c #D8676F",
"w 	c #BE010C",
"x 	c #EB5F6A",
"y 	c #E21E25",
"z 	c #861721",
"A 	c #61292D",
"B 	c #833035",
"C 	c #50171C",
"D 	c #A4434A",
"E 	c #E2A9AE",
"F 	c #B75E64",
"G 	c #E83549",
"H 	c #E73141",
"I 	c #E4797E",
"J 	c #BD1122",
"K 	c #E98287",
"L 	c #EF848D",
"M 	c #D7626A",
"N 	c #F1999F",
"O 	c #DD6D75",
"P 	c #ED6974",
"Q 	c #E93F4F",
"R 	c #A55B60",
"S 	c #DB7E85",
"T 	c #C21F2D",
"U 	c #6E3539",
"V 	c #D1030B",
"W 	c #D8030B",
"X 	c #B66B71",
"Y 	c #CE0413",
"Z 	c #8A3C41",
"` 	c #C8868B",
" .	c #A95258",
"..	c #DF888F",
"+.	c #E3959B",
"@.	c #D1858A",
"#.	c #D25A63",
"$.	c #C82935",
"%.	c #C50106",
"&.	c #E62939",
"*.	c #D1202A",
"=.	c #EF979C",
"-.	c #F4B9BE",
";.	c #995258",
">.	c #D60B15",
",.	c #F2B1B6",
"'.	c #CF0005",
").	c #C9323E",
"!.	c #930A14",
"~.	c #E20112",
"{.	c #A2111F",
"].	c #EF7A86",
"^.	c #421F21",
"/.	c #E4121C",
"(.	c #DF0713",
"_.	c #DA0003",
":.	c #9A060E",
"<.	c #A5050C",
"[.	c #C47D82",
"}.	c #CA3E4A",
"|.	c #FAEBED",
"1.	c #E59DA2",
"2.	c #66252A",
"3.	c #4F2225",
"4.	c #D28F94",
"5.	c #F4A5AC",
"6.	c #AC6368",
"7.	c #6B2B30",
"8.	c #844246",
"9.	c #E8B3B7",
"0.	c #7E3A3F",
"a.	c #BD0B1B",
"b.	c #94474D",
"c.	c #EA4955",
"d.	c #D59498",
"e.	c #8B4045",
"f.	c #D7131F",
"g.	c #E5192E",
"h.	c #E51329",
"i.	c #BC020A",
"j.	c #CD8B90",
"k.	c #910910",
"l.	c #9F555B",
"m.	c #A90512",
"n.	c #6C2228",
"o.	c #F4D2D5",
"p.	c #5E181E",
"q.	c #B4030B",
"r.	c #66141B",
"s.	c #EF8D94",
"t.	c #A56065",
"u.	c #6A252B",
"v.	c #850B11",
"w.	c #BA767A",
"x.	c #EF7882",
"y.	c #9C0714",
"z.	c #D99CA0",
"A.	c #EB5364",
"B.	c #781014",
"C.	c #EAB7BB",
"D.	c #E5AEB2",
"E.	c #B00410",
"F.	c #F8D4D7",
"G.	c #6C1319",
"H.	c #753135",
"I.	c #970912",
"J.	c #EB4E5D",
"K.	c #651F24",
"L.	c #F2C3C7",
"M.	c #AE686D",
"N.	c #711B23",
"O.	c #850C17",
"P.	c #B36F75",
"Q.	c #EF737C",
"R.	c #D9091F",
"S.	c #F2A2A7",
"T.	c #823C41",
"U.	c #DAA2A6",
"V.	c #F4CDD0",
"W.	c #FBE3E4",
"X.	c #8B454B",
"Y.	c #DEA7AB",
"Z.	c #65191F",
"`.	c #751017",
" +	c #A20612",
".+	c #7C0E15",
"++	c #78141C",
"@+	c #D90003",
"#+	c #954F54",
"$+	c #800E17",
"%+	c #E52034",
"&+	c #722A30",
"*+	c #C38488",
"=+	c #E30004",
"-+	c #EEBFC2",
";+	c #BD0210",
">+	c #C90109",
",+	c #FDEEEF",
"'+	c #CB0107",
")+	c #FEF0F1",
"!+	c #BC7A7F",
"~+	c #F9DFE1",
"{+	c #CD0106",
"]+	c #F1CACD",
"^+	c #E10113",
"/+	c #7B353A",
"(+	c #D3979B",
"_+	c #F9DADD",
":+	c #F4A9B0",
"<+	c #E10210",
"[+	c #8B0B13",
"}+	c #C0020E",
"|+	c #D8747C",
"1+	c #D70003",
"2+	c #FCE6E8",
"3+	c #C60109",
"4+	c #711218",
"5+	c #FFFCFC",
"6+	c #FFF3F4",
"7+	c #E10109",
"8+	c #FAD8DB",
"9+	c #B60311",
"0+	c #E30A21",
"a+	c #E1010B",
"b+	c #FEEAEB",
"c+	c #E20419",
"d+	c #CD4A54",
"e+	c #E7A8AD",
"f+	c #BF1524",
"g+	c #6B181E",
"h+	c #F3D6D9",
"i+	c #E10006",
"j+	c #FFFEFE",
"k+	c #D10106",
"l+	c #B9010D",
"m+	c #C3010B",
"n+	c #E3061A",
"o+	c #DB0004",
"p+	c #BA0312",
"q+	c #DF0005",
"r+	c #DD0005",
"s+	c #E2091C",
"t+	c #E00003",
"u+	c #D40005",
"v+	c #BA0210",
"w+	c #E30217",
"x+	c #B9010C",
"y+	c #BC0211",
"z+	c #E00004",
"A+	c #E30B23",
"B+	c #FEF7F8",
"C+	c #E00006",
"D+	c #E3071F",
"E+	c #E30D25",
"F+	c #FFF9F9",
"G+	c #FFFFFF",
"H+	c #BA0311",
"          G G &.&.&.&./.        ",
"        s.=.s.L L s.s.s.&.      ",
"    &.=.].: g * t+t+# A.s.&.    ",
"  H =.Q.<+i+t+t+t+t+_._.#.+.).  ",
"G N v #.d+$.d+f.f.d+$.t t u d.).",
"s.Q.|+]+(+C.C.E E 9.C.C.9.E u S ",
"s.J.|+o.!+C.}.-+-+}.C.-+R C.d+@.",
"s.c.v (+*.Y.-+d.(+-+U.D.-+(+d+@.",
"L c.>.$.d+t u t $.R T  . .a.d+@.",
"L c.# z.-+(+h+(+9.C.Y.-+-+F d+@.",
"K x o+[.-+u 9. .C.D -+]+-+t u S ",
"H =.q (+-+F Y.r U.C.(+E D d++.).",
"  &.s.M T %.f+q.a.T a.f+F +.).  ",
"    %+..v 3+w x+x+x+i.u d.).    ",
"        ....S S S S ..d.$.      ",
"          $.$.$.$.$.$.f+        "};
