/* XPM */
const char *AppIcon_xpm[] = {
/* columns rows colors chars-per-pixel */
"36 48 182 2 ",
"   c None",
".  c gray5",
"X  c gray6",
"o  c #101010",
"O  c #111111",
"+  c gray7",
"@  c #131212",
"#  c #131313",
"$  c gray8",
"%  c #151515",
"&  c #161616",
"*  c gray9",
"=  c #181818",
"-  c #191919",
";  c gray10",
":  c #1A1A1B",
">  c #1A1B1B",
",  c #1B1B1B",
"<  c #1C1C1B",
"1  c #1B1B1C",
"2  c #1B1C1C",
"3  c gray11",
"4  c #1C1C1D",
"5  c #1C1D1D",
"6  c #1D1D1D",
"7  c #1D1D1E",
"8  c #1E1E1E",
"9  c #1E1E1F",
"0  c #1E1F1F",
"q  c gray12",
"w  c #1F2020",
"e  c #202020",
"r  c #212120",
"t  c gray13",
"y  c #222222",
"u  c #232222",
"i  c #232323",
"p  c #242323",
"a  c #242423",
"s  c gray14",
"d  c #252424",
"f  c #252525",
"g  c gray15",
"h  c #272626",
"j  c #272726",
"k  c #272727",
"l  c #282828",
"z  c #292928",
"x  c gray16",
"c  c #2A2929",
"v  c #2A2A29",
"b  c #2A2A2A",
"n  c #2B2A2A",
"m  c gray17",
"M  c #2C2B2B",
"N  c #2C2C2B",
"B  c #2C2C2C",
"V  c #2D2C2C",
"C  c #2D2D2C",
"Z  c #2D2D2D",
"A  c gray18",
"S  c #2F2F2E",
"D  c #2F2F2F",
"F  c #302F2F",
"G  c #30302F",
"H  c gray19",
"J  c #313030",
"K  c #313130",
"L  c #313131",
"P  c #323231",
"I  c #333232",
"U  c #333332",
"Y  c gray20",
"T  c #343333",
"R  c #343433",
"E  c #343434",
"W  c #353434",
"Q  c #353535",
"!  c #363535",
"~  c #363635",
"^  c #373635",
"/  c gray21",
"(  c #373636",
")  c #373736",
"_  c #373737",
"`  c #383736",
"'  c #383737",
"]  c #383837",
"[  c gray22",
"{  c #393838",
"}  c #393939",
"|  c #3A3938",
" . c #3A3939",
".. c #3A3A39",
"X. c #3B3A39",
"o. c #3A3A3A",
"O. c #3B3A3A",
"+. c #3B3B3A",
"@. c gray23",
"#. c #3C3B3A",
"$. c #3D3C3C",
"%. c #3D3D3C",
"&. c gray24",
"*. c #3E3D3C",
"=. c #3E3D3D",
"-. c #3E3E3D",
";. c #3F3E3D",
":. c #3E3E3E",
">. c #3F3E3E",
",. c #3F3F3F",
"<. c #403F3E",
"1. c #41403F",
"2. c gray25",
"3. c #414040",
"4. c #414140",
"5. c #414141",
"6. c #424140",
"7. c #434241",
"8. c #434342",
"9. c #444342",
"0. c #444343",
"q. c #444443",
"w. c #454443",
"e. c #454543",
"r. c gray27",
"t. c #464544",
"y. c #464545",
"u. c #474645",
"i. c #464646",
"p. c gray28",
"a. c #484746",
"s. c #494747",
"d. c #494847",
"f. c #484848",
"g. c #4A4948",
"h. c #4B4A49",
"j. c gray29",
"k. c #4B4B4B",
"l. c #4C4B4A",
"z. c #4D4C4B",
"x. c #4C4C4C",
"c. c gray30",
"v. c #4E4E4E",
"b. c gray31",
"n. c #505050",
"m. c #515151",
"M. c #525150",
"N. c gray32",
"B. c gray33",
"V. c #555555",
"C. c #565656",
"Z. c gray35",
"A. c #5A5A5A",
"S. c #5B5B5A",
"D. c #5B5B5B",
"F. c gray36",
"G. c #5D5D5D",
"H. c gray37",
"J. c gray38",
"K. c #626262",
"L. c #646464",
"P. c #656565",
"I. c gray40",
"U. c #676767",
"Y. c #6D6D6D",
"T. c #6F6F6F",
"R. c #717171",
"E. c gray46",
"W. c #767676",
"Q. c #777777",
"!. c gray49",
"~. c #7E7E7E",
"^. c gray50",
"/. c gray52",
"(. c gray53",
"). c #8B8B8B",
"_. c gray56",
"`. c #979797",
"'. c #989898",
"]. c #9D9D9D",
"[. c #9F9F9F",
"{. c #AFAFAF",
/* pixels */
"y y y y y y y y y y y y y y y y y y y y y y : D                         ",
"y 6 6 6 6 6 6 6 6 6 6 6 6 6 6 6 6 6 6 6 6 6 & U m.                      ",
"Q Q Q Q Q Q Q Q Q Q Q Q Q Q Q Q Q Q Q Q Q Q l | D.k.                    ",
"g g g g g g g g g g g g g g g g g g g g g g : Q L.V.x.                  ",
"6 6 6 6 6 6 6 6 6 6 6 6 6 6 6 6 6 6 6 6 6 6 + Q T.H.V.x.                ",
"6 6 6 y y y y y y y 6 6 y y y y y y y y 6 6 + | W.L.H.V.x.              ",
"6 6 y y y y y y y y y y y y y y y y y y y y + =.^.T.L.H.V.x.            ",
"y y y y y y y y y y y 6 y y y y y y y y y y + 7.(.W.T.L.H.V.x.          ",
"y y y y 6 6 6 6 6 y y y y y y y y y y y y y + =._.^.W.T.L.H.V.x.        ",
"y y y y y y 6 6 y y y y 6 6 6 6 6 y y y 6 6 . 7.`.(.^.W.T.L.H.V.x.      ",
"6 y y y y y y y y y y 6 l 7.9.` y 6 y 6 l | a u.].).(.^.W.T.L.H.V.k.    ",
"6 y y y y y y y y y y 6 7.| l <.w.y y =.a.| l H.{.].'._.(.^.W.T.L.D.m.  ",
"6 6 y y y y y y y 6 6 g u.g 6 6 k g 9.<.g 6 : 7.D.x.k.u.u.u.7.=.| Q Q U ",
"6 6 y y 6 y y y 6 6 6 g u.l y y 6 u.#.y w y 6 Q : . + + + + + + + & & : ",
"y y y y 6 6 6 y 6 y y y u.l : 6 7.| 1 6 6 6 y 9.l 6 y w y y y 6 6 6 6 6 ",
"y y y y 6 6 6 y y 6 6 g w.=.U <.z.#.] Q U l a g 6 6 y y y y y y 6 6 6 6 ",
"6 6 y y y y 6 6 6 l <.w.a.w.9.k.U Q Q | =.7.w.=.T y 6 y y y y y y y y y ",
"6 y y y y 6 6 6 ] a.Q y G u.9.U : : : 6 6 y g D =.u.R 6 y y y y y y y y ",
"6 6 y y y y 6 D a.g 6 6 y a.<.y g =.Q 6 l u.g 6 6 l u.| 6 y y y y y y y ",
"6 6 y y y y 6 U w.6 6 y g k.=.6 U m.k.l 6 9.` 6 y 6 g d.l 6 y y y y y 6 ",
"y y y y y y y y 9.=.y 6 | 9.a.l g 7.| y 6 U u.y 6 : D u.g 6 6 6 y 6 6 6 ",
"y y y y y y y 6 y =.| p u.l | <.6 6 6 y 6 y a.M y | a.F 6 6 y y y y 6 6 ",
"y y y y y y y y 6 6 6 U 9.y g k.D 6 y y y 6 <.` y | l 6 y y y y y y y y ",
"y y y y y y y y y y 6 =.| 6 6 Q u.y y y y 6 Q 7.6 6 6 y y y y y y y y y ",
"6 6 y y y y y y y y y 9.G 6 y y w.| 6 y y 6 D w.y y y y y y y y 6 y y y ",
"6 6 y y y y 6 y y 6 y u.N 6 y 6 g k.U 6 y 6 l u.g 6 y y y y y y 6 6 y y ",
"6 y y y y 6 6 6 6 y 6 w.D : y | U M l.D 6 6 l u.y 6 y y w 6 6 6 6 6 y y ",
"6 6 y y y 6 6 6 6 y 6 Q u.` u.7.l 6 D k.] y =.=.6 y y y 6 6 6 6 6 6 6 y ",
"y y y y y y y y y y 6 6 F Q D 6 6 y 6 g =.9.<.g 6 y y 6 y y y y y y y y ",
"y y y 6 y y y y y y y y 6 : 6 y y y y 6 6 y 6 6 y y y 6 y y y y y y y y ",
"y y 6 6 6 y y y y y y y y y y y y y y y e 6 y y y y 6 6 y y y y y y 6 6 ",
"y y 6 6 6 y y y y y y y y 6 q y y y y y y y y y y y 6 6 y y y y y y w 6 ",
"y y y 6 y y y y y y 6 y y y y y y y y y y y y y y y y y y y y 6 6 6 6 y ",
"y y 6 6 6 6 y y y y 6 : & & : 6 6 y y 6 6 : & & : y y y y y y y 6 6 y y ",
"y y 6 6 6 6 y y y y 6 Q k.k.| g D : 6 U 6 | u.k.Q 6 y y y y y y y y y y ",
"y y 6 6 6 6 6 y y y 6 J.=.| U y L.y | D.: L.| | U 6 y y y y y y y y y y ",
"y y 6 6 6 6 y y y 6 6 H.U D y & l L.D.6 6 H.l D y 6 y y y y 6 y y y y y ",
"y y 6 6 y 6 y y y 6 : J.m.x.Q : & R.D.. 6 L.x.x.D : y y y y 6 6 y y y y ",
"y y y y y y y y y 6 6 H.y : 6 : H.Q x.k.: H.: : 6 6 y y y 6 6 6 6 6 6 y ",
"y y y y y y y y y y : x.D.D.u.l k.& 6 x.6 m.D.D.u.: y y y y 6 6 6 6 6 6 ",
"y y y y 6 6 w w y y 6 : : : 6 6 : 6 6 : 6 : : : 6 6 y y 6 6 w w y y y y ",
"y y y y e 6 w w y y y y 6 6 6 6 6 6 w y 6 y 6 6 6 y y y e 6 w w 6 y y y ",
"y y y y y y w 6 y y y q y y y y w y y y y y y y y y y y y y w w 6 6 y y ",
"6 6 6 6 6 6 6 6 6 6 6 6 6 6 6 6 6 6 6 6 6 6 6 6 6 6 6 6 6 6 6 6 6 6 6 6 ",
"D D D D D D D D D D D D D D D D D D D D D D D D D D D D D D D D D D D D ",
"U U U U U U U U U U U U U U U U U U U U U U U U U U U U U U U U U U U U ",
"6 6 6 6 6 6 6 6 6 6 6 6 6 6 6 6 6 6 6 6 6 6 6 6 6 6 6 6 6 6 6 6 6 6 6 6 ",
"y y y y y y y y y y y y y y y y y y y y y y y y y y y y y y y y y y y y "
};
